<svg width="40" height="40" viewBox="0 0 40 40" fill="none" xmlns="http://www.w3.org/2000/svg">
<path d="M20.0016 36.0012C17.842 36.0012 15.7449 35.5793 13.7728 34.7448C11.8664 33.9385 10.1569 32.7821 8.68796 31.3132C7.21906 29.8443 6.0627 28.1348 5.25637 26.2283C4.42192 24.2563 4 22.1592 4 19.9996C4 19.3777 4.50317 18.8745 5.12511 18.8745C5.74705 18.8745 6.25022 19.3777 6.25022 19.9996C6.25022 21.856 6.61276 23.6562 7.33158 25.3533C8.02539 26.9909 9.01611 28.4629 10.2787 29.7256C11.5414 30.9882 13.0134 31.982 14.651 32.6727C16.345 33.3884 18.1451 33.751 20.0016 33.751C21.858 33.751 23.6582 33.3884 25.3552 32.6696C26.9929 31.9758 28.4649 30.9851 29.7275 29.7224C30.9901 28.4598 31.984 26.9878 32.6747 25.3501C33.3904 23.6562 33.7529 21.856 33.7529 19.9996C33.7529 18.1432 33.3904 16.343 32.6715 14.646C31.9801 13.0122 30.9793 11.5276 29.7244 10.2737C28.4719 9.01703 26.9868 8.01605 25.3521 7.3265C23.6582 6.6108 21.858 6.24827 20.0016 6.24827C19.3796 6.24827 18.8765 5.74509 18.8765 5.12316C18.8765 4.50122 19.3796 3.99805 20.0016 3.99805C22.1611 3.99805 24.2582 4.41996 26.2303 5.25442C28.1367 6.06075 29.8463 7.21711 31.3152 8.686C32.7841 10.1549 33.9373 11.8676 34.7436 13.7709C35.5781 15.7429 36 17.84 36 19.9996C36 22.1592 35.5781 24.2563 34.7436 26.2283C33.9404 28.1348 32.7841 29.8443 31.3152 31.3132C29.8463 32.7821 28.1336 33.9353 26.2303 34.7417C24.2582 35.5793 22.1611 36.0012 20.0016 36.0012Z" fill="black"/>
</svg>
