<svg width="24" height="24" viewBox="0 0 24 24" fill="none" xmlns="http://www.w3.org/2000/svg">
<path d="M11.9992 18C13.1992 18 14.2442 17.61 15.1342 16.83C16.0242 16.05 16.5592 15.08 16.7392 13.92C16.7792 13.72 16.7342 13.55 16.6042 13.41C16.4742 13.27 16.2992 13.2 16.0792 13.2H7.91922C7.71922 13.2 7.54922 13.27 7.40922 13.41C7.26922 13.55 7.21922 13.72 7.25922 13.92C7.43922 15.08 7.97422 16.05 8.86422 16.83C9.75422 17.61 10.7992 18 11.9992 18ZM11.9992 24C10.4992 24 9.09422 23.715 7.78422 23.145C6.47422 22.575 5.33422 21.805 4.36422 20.835C3.39422 19.865 2.62422 18.725 2.05422 17.415C1.48422 16.105 1.19922 14.7 1.19922 13.2V2.4C1.19922 1.74 1.43422 1.175 1.90422 0.705C2.37422 0.235 2.93922 0 3.59922 0H20.3992C21.0592 0 21.6242 0.235 22.0942 0.705C22.5642 1.175 22.7992 1.74 22.7992 2.4V13.2C22.7992 14.7 22.5142 16.105 21.9442 17.415C21.3742 18.725 20.6042 19.865 19.6342 20.835C18.6642 21.805 17.5242 22.575 16.2142 23.145C14.9042 23.715 13.4992 24 11.9992 24ZM11.9992 21.6C14.3192 21.6 16.2992 20.78 17.9392 19.14C19.5792 17.5 20.3992 15.52 20.3992 13.2V2.4H3.59922V13.2C3.59922 15.52 4.41922 17.5 6.05922 19.14C7.69922 20.78 9.67922 21.6 11.9992 21.6ZM11.9992 21.6C9.67922 21.6 7.69922 20.78 6.05922 19.14C4.41922 17.5 3.59922 15.52 3.59922 13.2V2.4H20.3992V13.2C20.3992 15.52 19.5792 17.5 17.9392 19.14C16.2992 20.78 14.3192 21.6 11.9992 21.6ZM8.39922 6C7.85922 6 7.38422 6.16 6.97422 6.48C6.56422 6.8 6.27922 7.2 6.11922 7.68C6.05922 7.86 6.08922 8.025 6.20922 8.175C6.32922 8.325 6.49922 8.4 6.71922 8.4H10.0792C10.2792 8.4 10.4392 8.325 10.5592 8.175C10.6792 8.025 10.7192 7.86 10.6792 7.68C10.5192 7.2 10.2342 6.8 9.82422 6.48C9.41422 6.16 8.93922 6 8.39922 6ZM15.5992 6C15.0592 6 14.5842 6.16 14.1742 6.48C13.7642 6.8 13.4792 7.2 13.3192 7.68C13.2592 7.86 13.2892 8.025 13.4092 8.175C13.5292 8.325 13.6992 8.4 13.9192 8.4H17.2792C17.4792 8.4 17.6392 8.325 17.7592 8.175C17.8792 8.025 17.9192 7.86 17.8792 7.68C17.7192 7.2 17.4342 6.8 17.0242 6.48C16.6142 6.16 16.1392 6 15.5992 6Z" fill="#CEC3E6"/>
</svg>
